<svg xmlns="http://www.w3.org/2000/svg" width="171" height="60" viewBox="0 0 171 60" fill="none"><path d="M0.310783 8.74298C0.310783 4.08588 4.08611 0.310547 8.74322 0.310547H59.8648V59.8646H8.74322C4.08611 59.8646 0.310783 56.0893 0.310783 51.4322V8.74298Z" fill="#00C0C9"></path><path d="M105.229 12.2993H97.2417V39.8097L90.131 39.8097C85.384 39.8097 82.1553 36.5746 82.1553 31.8247V18.4427C82.1553 15.0499 79.4066 12.2995 76.0159 12.2995H74.1684L74.1684 31.8247C74.1684 40.6459 81.3152 47.7968 90.131 47.7968L105.229 47.7966V12.2993Z" fill="white"></path><path d="M139.841 47.7964L147.828 47.7964L147.828 20.286L154.939 20.286C159.686 20.286 162.914 23.5211 162.914 28.271L162.914 41.653C162.914 45.0458 165.663 47.7962 169.054 47.7962L170.901 47.7962L170.901 28.271C170.901 19.4498 163.754 12.2989 154.939 12.2989L139.841 12.2991L139.841 47.7964Z" fill="white"></path><path d="M133.668 8.33057C133.668 7.28171 133.462 6.24313 133.061 5.27411C132.659 4.3051 132.071 3.42463 131.329 2.68298C130.588 1.94133 129.707 1.35302 128.738 0.951638C127.769 0.550259 126.73 0.343672 125.682 0.343672L125.682 8.33057L133.668 8.33057Z" fill="white"></path><path d="M119.438 51.748C119.438 52.7968 119.232 53.8354 118.83 54.8044C118.429 55.7734 117.841 56.6539 117.099 57.3956C116.357 58.1372 115.477 58.7255 114.508 59.1269C113.539 59.5283 112.5 59.7349 111.451 59.7349L111.39 12.2769L119.377 12.2769L119.438 51.748Z" fill="white"></path><path d="M125.631 12.2993H133.618V47.7966H125.631V12.2993Z" fill="white"></path><path d="M49.5001 8.39111H39.5167V41.766L30.6286 41.766C24.695 41.766 20.6592 37.7087 20.6592 31.7517V16.0957C20.6592 11.8408 17.2234 8.39138 12.985 8.39138H10.6758V31.7517C10.6758 42.8147 19.609 51.783 30.6286 51.783L49.5001 51.7827V8.39111Z" fill="white"></path></svg>